<svg width="18" height="18" viewBox="0 0 18 18" fill="none" xmlns="http://www.w3.org/2000/svg">
<path d="M7.875 2.625C7.875 2.32663 7.99353 2.04048 8.2045 1.8295C8.41548 1.61853 8.70163 1.5 9 1.5C9.29837 1.5 9.58452 1.61853 9.7955 1.8295C10.0065 2.04048 10.125 2.32663 10.125 2.625V11.625C10.125 11.9234 10.0065 12.2095 9.7955 12.4205C9.58452 12.6315 9.29837 12.75 9 12.75C8.70163 12.75 8.41548 12.6315 8.2045 12.4205C7.99353 12.2095 7.875 11.9234 7.875 11.625V2.625ZM7.875 15.375C7.875 15.0766 7.99353 14.7905 8.2045 14.5795C8.41548 14.3685 8.70163 14.25 9 14.25C9.29837 14.25 9.58452 14.3685 9.7955 14.5795C10.0065 14.7905 10.125 15.0766 10.125 15.375C10.125 15.6734 10.0065 15.9595 9.7955 16.1705C9.58452 16.3815 9.29837 16.5 9 16.5C8.70163 16.5 8.41548 16.3815 8.2045 16.1705C7.99353 15.9595 7.875 15.6734 7.875 15.375Z" fill="white"/>
</svg>
