<svg width="9" height="3" viewBox="0 0 9 3" fill="none" xmlns="http://www.w3.org/2000/svg">
<path d="M7.86738 1.07926L7.86738 1.32801L7.86738 1.07926L5.04476 1.07926L4.32926 1.07926L4.32926 1.32926L4.32926 1.07926L2.29813 1.07926L1.50665 1.07926L1.50665 1.32809L1.50665 1.07926C1.32052 1.07926 1.1641 1.15426 1.05767 1.27811C0.955718 1.39674 0.9108 1.54651 0.910781 1.68698C0.910762 1.82745 0.95564 1.97724 1.05761 2.0959C1.16406 2.21978 1.3205 2.29476 1.50665 2.29476L4.32926 2.29476H5.04477L7.07591 2.29476L7.86738 2.29476C8.05351 2.29476 8.20992 2.21976 8.31636 2.09591C8.41831 1.97728 8.46323 1.82751 8.46325 1.68704C8.46327 1.54657 8.41839 1.39678 8.31642 1.27812C8.20997 1.15424 8.05352 1.07926 7.86738 1.07926Z" fill="white" stroke="white" stroke-width="0.5"/>
</svg>
